<?xml version="1.0" standalone="no"?>
<!DOCTYPE svg PUBLIC "-//W3C//DTD SVG 20010904//EN"
 "http://www.w3.org/TR/2001/REC-SVG-20010904/DTD/svg10.dtd">
<svg version="1.0" xmlns="http://www.w3.org/2000/svg"
 width="700.000000pt" height="700.000000pt" viewBox="0 0 700.000000 700.000000"
 preserveAspectRatio="xMidYMid meet">
<metadata>
Created by potrace 1.11, written by Peter Selinger 2001-2013
</metadata>
<g transform="translate(0.000000,700.000000) scale(0.100000,-0.100000)"
fill="#000000" stroke="none">
<path d="M2328 6559 c-6 -4 -10 -806 -10 -2342 l0 -2336 -46 5 c-147 15 -283
72 -379 159 -76 69 -160 213 -178 305 -31 153 -24 298 20 412 l15 38 -206 267
c-112 148 -210 275 -217 283 -7 9 -33 42 -57 75 -25 33 -49 65 -55 71 -5 6
-82 106 -170 222 -88 116 -165 211 -170 211 -12 1 -23 -11 -115 -128 -127
-162 -243 -376 -322 -596 -22 -60 -41 -117 -43 -125 -2 -8 -13 -51 -24 -95
-26 -107 -48 -234 -57 -320 -3 -38 -8 -79 -10 -90 -6 -31 -5 -354 1 -415 10
-99 25 -214 35 -265 6 -27 12 -59 14 -71 27 -141 102 -357 177 -508 107 -217
249 -405 419 -558 85 -77 105 -92 233 -181 132 -92 514 -260 640 -281 16 -3
43 -10 60 -15 41 -13 245 -48 322 -55 77 -7 3427 -8 3434 -1 3 3 5 377 6 830
l0 825 -55 1 c-30 0 -405 0 -832 1 l-778 0 0 2339 c0 1864 -3 2339 -12 2340
-69 4 -1632 2 -1640 -2z"/>
<path d="M5753 1882 l-23 -3 0 -830 0 -829 438 2 437 3 1 828 0 827 -50 1
c-307 3 -786 3 -803 1z"/>
</g>
</svg>
